<svg
  width="75"
  height="100"
  viewBox="0 0 75 100"
  fill="none"
  xmlns="http://www.w3.org/2000/svg"
>
  <path
    fill-rule="evenodd"
    clip-rule="evenodd"
    d="M46.194 30.8659C48.7067 36.9322 50 43.434 50 50.0001L50 100C43.4339 100 36.9321 98.7069 30.8658 96.1942C24.7996 93.6814 19.2876 89.9985 14.6447 85.3555C10.0017 80.7126 6.31877 75.2006 3.80604 69.1343C1.29331 63.068 1.74268e-05 56.5662 2.18557e-06 50.0001L0 0C6.56609 0 13.0679 1.29329 19.1342 3.80603C25.2005 6.31877 30.7124 10.0018 35.3553 14.6447C39.9983 19.2876 43.6812 24.7996 46.194 30.8659Z"
    fill="#FF80C5"
  />
  <path
    d="M75 50.0001C75 43.434 73.7067 36.9322 71.194 30.8659C68.6812 24.7996 64.9983 19.2876 60.3553 14.6447C55.7124 10.0018 50.2005 6.31877 44.1342 3.80603C38.0679 1.29329 31.5661 -2.87014e-07 25 0L25 50.0001H75Z"
    fill="white"
  />
</svg>
