<svg width="27" height="36" viewBox="0 0 27 36" fill="none" xmlns="http://www.w3.org/2000/svg">
<path fill-rule="evenodd" clip-rule="evenodd" d="M16.4172 10.9696C17.3102 13.1256 17.7698 15.4363 17.7698 17.7698V35.5397C15.4362 35.5397 13.1255 35.0801 10.9696 34.187C8.81367 33.294 6.85474 31.9851 5.20466 30.335C3.55458 28.6849 2.24566 26.726 1.35265 24.5701C0.459631 22.4141 0 20.1034 0 17.7698V0C2.33356 0 4.64428 0.459631 6.80021 1.35265C8.95614 2.24567 10.9151 3.55458 12.5652 5.20467C14.2152 6.85475 15.5241 8.81368 16.4172 10.9696Z" fill="#FF80C5"/>
<path d="M26.6547 17.7698C26.6547 15.4363 26.1951 13.1256 25.302 10.9696C24.409 8.81368 23.1001 6.85475 21.45 5.20467C19.8 3.55458 17.841 2.24567 15.6851 1.35265C13.5292 0.45963 11.2185 -1.02004e-07 8.88489 0L8.88489 17.7698H26.6547Z" fill="#1B1B1F"/>
</svg>
